<svg id="Layer_5" enable-background="new 0 0 64 64" height="512" viewBox="0 0 64 64" width="512" xmlns="http://www.w3.org/2000/svg"><g fill="#ccd1d9"><path d="m44 48h6v14h-6z"/><path d="m32 44h6v18h-6z"/><path d="m20 52h6v10h-6z"/><path d="m56 36h6v26h-6z"/></g><path d="m35 34c1.66 0 3 1.34 3 3 0 .33-.05.65-.16.95-.39 1.19-1.51 2.05-2.84 2.05-1.05 0-1.96-.53-2.5-1.34-.31-.48-.5-1.05-.5-1.66 0-1.66 1.34-3 3-3z" fill="#ff826e"/><path d="m25.5 43.34c.31.48.5 1.05.5 1.66 0 1.66-1.34 3-3 3s-3-1.34-3-3 1.34-3 3-3c1.05 0 1.96.53 2.5 1.34z" fill="#ff826e"/><path d="m59 26c1.66 0 3 1.34 3 3s-1.34 3-3 3c-.83 0-1.58-.34-2.12-.88s-.88-1.29-.88-2.12c0-1.66 1.34-3 3-3z" fill="#ff826e"/><path d="m49.12 38.88c.54.54.88 1.29.88 2.12 0 1.66-1.34 3-3 3s-3-1.34-3-3c0-.33.05-.65.16-.95.39-1.19 1.51-2.05 2.84-2.05.83 0 1.58.34 2.12.88z" fill="#ff826e"/><path d="m37 7c5.52 0 10 4.48 10 10s-4.48 10-10 10c-4.49 0-8.29-2.96-9.56-7.04.65-.09 1.24-.4 1.68-.84.54-.54.88-1.29.88-2.12 0-1.51-1.11-2.76-2.56-2.96 1.27-4.08 5.07-7.04 9.56-7.04z" fill="#fcd770"/><path d="m14 35v24c0 1.66-1.34 3-3 3-.83 0-1.58-.34-2.12-.88s-.88-1.29-.88-2.12v-3-16.86c0-1.34.67-2.59 1.78-3.33l1.22-.81z" fill="#cf9e76"/><path d="m11 35-1.22.81c-1.11.74-1.78 1.99-1.78 3.33v16.86 3c0 1.66-1.34 3-3 3-.83 0-1.58-.34-2.12-.88s-.88-1.29-.88-2.12v-24z" fill="#cf9e76"/><path d="m14 20v15h-3-9v-14c0-3.87 3.13-7 7-7h1 17c.15 0 .29.01.44.04 1.45.2 2.56 1.45 2.56 2.96 0 .83-.34 1.58-.88 2.12-.44.44-1.03.75-1.68.84-.15.03-.29.04-.44.04z" fill="#b4dd7f"/><circle cx="10" cy="8" fill="#f0d0b4" r="6"/><path d="m36 20c-.551 0-1-.448-1-1h-2c0 1.654 1.346 3 3 3v2h2v-2h3v-3c0-1.654-1.346-3-3-3h-2c-.551 0-1-.448-1-1v-1h3c.551 0 1 .448 1 1h2c0-1.654-1.346-3-3-3v-2h-2v2h-3v3c0 1.654 1.346 3 3 3h2c.551 0 1 .448 1 1v1z"/><path d="m26.754 21c1.638 4.217 5.658 7 10.246 7 6.065 0 11-4.935 11-11s-4.935-11-11-11c-4.588 0-8.608 2.783-10.246 7h-11.865c1.301-1.272 2.111-3.042 2.111-5 0-3.859-3.14-7-7-7s-7 3.141-7 7c0 2.314 1.134 4.364 2.87 5.639-2.86 1.221-4.87 4.06-4.87 7.361v38c0 2.206 1.794 4 4 4 1.2 0 2.266-.542 3-1.382.734.84 1.8 1.382 3 1.382 2.206 0 4-1.794 4-4v-38zm10.246-13c4.962 0 9 4.037 9 9s-4.038 9-9 9c-3.64 0-6.841-2.143-8.253-5.419 1.328-.651 2.253-2.004 2.253-3.581s-.925-2.93-2.253-3.581c1.412-3.276 4.613-5.419 8.253-5.419zm-32 0c0-2.757 2.243-5 5-5s5 2.243 5 5-2.243 5-5 5-5-2.243-5-5zm0 53c-1.103 0-2-.897-2-2v-23h5.12c-.711.878-1.12 1.978-1.12 3.141v16.859 3c0 1.103-.897 2-2 2zm6 0c-1.103 0-2-.897-2-2v-3-16.859c0-1.005.5-1.938 1.336-2.496l.967-.645h1.697v23c0 1.103-.897 2-2 2zm2-27h-10v-13c0-3.309 2.691-6 6-6h18c1.103 0 2 .897 2 2s-.897 2-2 2h-16v2h2z"/><path d="m55 61h-4v-14h-8v14h-4v-18h-8v18h-4v-10h-8v12h44v-28h-8zm-30 0h-4v-8h4zm20-12h4v12h-4zm-12-4h4v16h-4zm24-8h4v24h-4z"/><path d="m49.019 37.567c-.595-.352-1.279-.567-2.019-.567-1.405 0-2.637.731-3.351 1.829l-4.676-1.559c.006-.091.027-.177.027-.27 0-2.206-1.794-4-4-4s-4 1.794-4 4c0 .46.094.895.237 1.307l-5.584 3.723c-.707-.633-1.631-1.03-2.653-1.03-2.206 0-4 1.794-4 4s1.794 4 4 4 4-1.794 4-4c0-.46-.094-.895-.237-1.307l5.584-3.723c.707.633 1.631 1.03 2.653 1.03 1.405 0 2.637-.731 3.351-1.829l4.676 1.559c-.006.091-.027.177-.027.27 0 2.206 1.794 4 4 4s4-1.794 4-4c0-.74-.215-1.424-.567-2.019l6.548-6.548c.595.352 1.279.567 2.019.567 2.206 0 4-1.794 4-4s-1.794-4-4-4-4 1.794-4 4c0 .74.215 1.424.567 2.019zm-26.019 9.433c-1.103 0-2-.897-2-2s.897-2 2-2 2 .897 2 2-.897 2-2 2zm12-8c-1.103 0-2-.897-2-2s.897-2 2-2 2 .897 2 2-.897 2-2 2zm12 4c-1.103 0-2-.897-2-2s.897-2 2-2 2 .897 2 2-.897 2-2 2zm12-16c1.103 0 2 .897 2 2s-.897 2-2 2-2-.897-2-2 .897-2 2-2z"/></svg>