<svg xmlns="http://www.w3.org/2000/svg" width="40" height="40" viewBox="0 0 40 40">
  <g id="Group_27377" data-name="Group 27377" transform="translate(-24 -493)">
    <g id="Group_26994" data-name="Group 26994" transform="translate(-114.665 200.224)">
      <g id="Group_26994-2" data-name="Group 26994" transform="translate(164.182 308.71)">
        <path id="Path_29764" data-name="Path 29764" d="M164.673,309.1a13.032,13.032,0,0,1,3.006,8.8c-.023,4.263-.443,4.53-.443,4.53s4.3-4.17,3.729-8.427S164.673,309.1,164.673,309.1Z" transform="translate(-164.673 -309.097)" fill="#1492e6"/>
      </g>
      <g id="Group_26995" data-name="Group 26995" transform="translate(155.246 302.324)">
        <rect id="Rectangle_15490" data-name="Rectangle 15490" width="1" height="6.783" fill="#ccc"/>
      </g>
      <g id="Group_26996" data-name="Group 26996" transform="translate(149.329 304.176)">
        <path id="Path_29765" data-name="Path 29765" d="M157.158,323.487a2.269,2.269,0,0,1-.259-.016,1.985,1.985,0,0,1-1.328-.762l-5.488-7.1a2,2,0,0,1,.358-2.8l10.708-8.276,7.935,10.265-10.708,8.277A1.983,1.983,0,0,1,157.158,323.487Zm3.811-17.558-9.916,7.665a1,1,0,0,0-.179,1.4l5.488,7.1a1,1,0,0,0,.664.381,1.006,1.006,0,0,0,.739-.2l9.917-7.665Z" transform="translate(-149.664 -304.527)" fill="#ccc"/>
      </g>
      <g id="Group_26997" data-name="Group 26997" transform="translate(160.1 302.302)">
        <rect id="Rectangle_15491" data-name="Rectangle 15491" width="1" height="10.325" fill="#ccc"/>
      </g>
      <g id="Group_26998" data-name="Group 26998" transform="translate(155.707 302.354)">
        <rect id="Rectangle_15492" data-name="Rectangle 15492" width="4.935" height="1" fill="#ccc"/>
      </g>
      <g id="Group_26999" data-name="Group 26999" transform="translate(159.624 311.787)">
        <circle id="Ellipse_3817" data-name="Ellipse 3817" cx="0.99" cy="0.99" r="0.99" fill="#ccc"/>
      </g>
      <g id="Group_27000" data-name="Group 27000" transform="translate(138.665 292.776)">
        <path id="Path_29766" data-name="Path 29766" d="M173.253,332.776H144.077a5.418,5.418,0,0,1-5.412-5.412V298.188a5.419,5.419,0,0,1,5.412-5.412h29.175a5.419,5.419,0,0,1,5.412,5.412v29.175A5.419,5.419,0,0,1,173.253,332.776ZM144.077,293.76a4.433,4.433,0,0,0-4.428,4.428v29.175a4.433,4.433,0,0,0,4.428,4.428h29.175a4.433,4.433,0,0,0,4.428-4.428V298.188a4.434,4.434,0,0,0-4.428-4.428Z" transform="translate(-138.665 -292.776)" fill="#ccc"/>
      </g>
      <g id="Group_27001" data-name="Group 27001" transform="translate(138.665 292.776)">
        <path id="Path_29767" data-name="Path 29767" d="M173.253,332.776H144.077a5.418,5.418,0,0,1-5.412-5.412V298.188a5.419,5.419,0,0,1,5.412-5.412h29.175a5.419,5.419,0,0,1,5.412,5.412v29.175A5.419,5.419,0,0,1,173.253,332.776ZM144.077,293.76a4.433,4.433,0,0,0-4.428,4.428v29.175a4.433,4.433,0,0,0,4.428,4.428h29.175a4.433,4.433,0,0,0,4.428-4.428V298.188a4.434,4.434,0,0,0-4.428-4.428Z" transform="translate(-138.665 -292.776)" fill="#ccc"/>
      </g>
    </g>
  </g>
</svg>
